<svg width="106" height="106" viewBox="0 0 106 106" fill="none" xmlns="http://www.w3.org/2000/svg">
<g id="Frame" clip-path="url(#clip0_4911_26476)">
<path id="Vector" d="M53.0026 34.9156C52.2705 34.9156 51.5684 34.6247 51.0507 34.1071C50.533 33.5894 50.2422 32.8873 50.2422 32.1551V20.4245C50.2422 19.6924 50.533 18.9902 51.0507 18.4726C51.5684 17.9549 52.2705 17.6641 53.0026 17.6641C53.7347 17.6641 54.4368 17.9549 54.9545 18.4726C55.4722 18.9902 55.763 19.6924 55.763 20.4245V32.1551C55.763 33.6833 54.5264 34.9156 53.0026 34.9156V34.9156Z" fill="black"/>
<path id="Vector_2" opacity="0.9" d="M43.958 37.3443C43.3246 37.7096 42.5723 37.8087 41.866 37.6199C41.1597 37.4311 40.5571 36.9699 40.1905 36.3373L34.3252 26.179C33.9985 25.5485 33.9273 24.8164 34.1264 24.1348C34.3255 23.4532 34.7796 22.8745 35.3944 22.5191C36.0091 22.1637 36.7372 22.0588 37.4272 22.2264C38.1173 22.3939 38.7163 22.8209 39.0996 23.4186L44.965 33.5769C45.1464 33.8904 45.2643 34.2365 45.3119 34.5955C45.3595 34.9546 45.3358 35.3195 45.2423 35.6694C45.1488 36.0192 44.9872 36.3473 44.7668 36.6347C44.5465 36.9221 44.2716 37.1632 43.958 37.3443V37.3443Z" fill="black"/>
<path id="Vector_3" opacity="0.85" d="M37.3421 43.9562C37.161 44.2698 36.9198 44.5447 36.6324 44.765C36.345 44.9854 36.017 45.147 35.6671 45.2405C35.3172 45.334 34.9523 45.3577 34.5933 45.3101C34.2343 45.2625 33.8881 45.1446 33.5747 44.9632L23.4164 39.0978C22.7832 38.7318 22.3214 38.1292 22.1326 37.4227C21.9437 36.7161 22.0433 35.9635 22.4093 35.3304C22.7754 34.6973 23.378 34.2355 24.0845 34.0467C24.791 33.8578 25.5436 33.9574 26.1768 34.3234L36.3351 40.1887C37.6513 40.9484 38.1018 42.64 37.3421 43.9562Z" fill="black"/>
<path id="Vector_4" opacity="0.8" d="M34.9156 53.0026C34.9156 54.5264 33.6789 55.763 32.1551 55.763H20.4245C19.6924 55.763 18.9902 55.4722 18.4726 54.9545C17.9549 54.4368 17.6641 53.7347 17.6641 53.0026C17.6641 52.2705 17.9549 51.5684 18.4726 51.0507C18.9902 50.533 19.6924 50.2422 20.4245 50.2422H32.1551C33.6833 50.2422 34.9156 51.4789 34.9156 53.0026Z" fill="black"/>
<path id="Vector_5" opacity="0.75" d="M37.3443 62.0419C37.7096 62.6752 37.8087 63.4275 37.6199 64.1338C37.4311 64.8401 36.9699 65.4427 36.3373 65.8093L26.179 71.6746C25.5485 72.0014 24.8164 72.0726 24.1348 71.8735C23.4532 71.6743 22.8745 71.2202 22.5191 70.6055C22.1637 69.9907 22.0588 69.2627 22.2264 68.5726C22.3939 67.8825 22.8209 67.2836 23.4186 66.9002L33.5769 61.0349C33.8904 60.8534 34.2365 60.7355 34.5955 60.688C34.9546 60.6404 35.3195 60.664 35.6694 60.7575C36.0192 60.8511 36.3473 61.0126 36.6347 61.233C36.9221 61.4534 37.1632 61.7283 37.3443 62.0419Z" fill="black"/>
<path id="Vector_6" opacity="0.7" d="M43.9562 68.6583C44.2698 68.8394 44.5447 69.0805 44.765 69.3679C44.9854 69.6554 45.147 69.9834 45.2405 70.3333C45.334 70.6832 45.3577 71.0481 45.3101 71.4071C45.2625 71.7661 45.1446 72.1123 44.9632 72.4257L39.0978 82.584C38.9166 82.8975 38.6753 83.1722 38.3879 83.3925C38.1005 83.6128 37.7725 83.7743 37.4227 83.8678C37.0728 83.9613 36.708 83.985 36.349 83.9375C35.99 83.89 35.6439 83.7723 35.3304 83.591C35.0169 83.4098 34.7422 83.1686 34.5219 82.8811C34.3017 82.5937 34.1402 82.2657 34.0466 81.9159C33.9531 81.566 33.9295 81.2012 33.9769 80.8422C34.0244 80.4832 34.1422 80.1371 34.3234 79.8236L40.1887 69.6653C40.5553 69.0327 41.1579 68.5715 41.8642 68.3827C42.5705 68.1939 43.3228 68.293 43.9562 68.6583V68.6583Z" fill="black"/>
<path id="Vector_7" opacity="0.65" d="M53.0026 71.0781C54.5264 71.0781 55.763 72.3148 55.763 73.8385V85.5692C55.763 86.3013 55.4722 87.0034 54.9545 87.5211C54.4368 88.0388 53.7347 88.3296 53.0026 88.3296C52.2705 88.3296 51.5684 88.0388 51.0507 87.5211C50.533 87.0034 50.2422 86.3013 50.2422 85.5692V73.8385C50.2422 72.3104 51.4789 71.0781 53.0026 71.0781Z" fill="black"/>
<path id="Vector_8" opacity="0.6" d="M62.0419 68.6583C62.6752 68.293 63.4275 68.1939 64.1338 68.3827C64.8401 68.5715 65.4427 69.0327 65.8093 69.6653L71.6746 79.8236C72.0014 80.4541 72.0726 81.1862 71.8735 81.8678C71.6743 82.5494 71.2202 83.1281 70.6055 83.4835C69.9907 83.8389 69.2627 83.9438 68.5726 83.7763C67.8825 83.6088 67.2836 83.1817 66.9002 82.584L61.0349 72.4257C60.8534 72.1123 60.7355 71.7661 60.688 71.4071C60.6404 71.0481 60.664 70.6832 60.7575 70.3333C60.8511 69.9834 61.0126 69.6554 61.233 69.3679C61.4534 69.0805 61.7283 68.8394 62.0419 68.6583Z" fill="black"/>
<path id="Vector_9" opacity="0.55" d="M68.6583 62.0419C68.8394 61.7283 69.0805 61.4534 69.3679 61.233C69.6554 61.0126 69.9834 60.8511 70.3333 60.7575C70.6832 60.664 71.0481 60.6404 71.4071 60.688C71.7661 60.7355 72.1123 60.8534 72.4257 61.0349L82.584 66.9002C82.8975 67.0815 83.1722 67.3227 83.3925 67.6101C83.6128 67.8975 83.7743 68.2255 83.8678 68.5754C83.9613 68.9252 83.985 69.29 83.9375 69.649C83.89 70.008 83.7723 70.3541 83.591 70.6676C83.4098 70.9811 83.1686 71.2559 82.8811 71.4761C82.5937 71.6964 82.2657 71.8579 81.9159 71.9514C81.566 72.0449 81.2012 72.0686 80.8422 72.0211C80.4832 71.9736 80.1371 71.8559 79.8236 71.6746L69.6653 65.8093C69.0327 65.4427 68.5715 64.8401 68.3827 64.1338C68.1939 63.4275 68.293 62.6752 68.6583 62.0419V62.0419Z" fill="black"/>
<path id="Vector_10" opacity="0.5" d="M71.0781 53.0026C71.0781 51.4789 72.3148 50.2422 73.8385 50.2422H85.5692C86.3013 50.2422 87.0034 50.533 87.5211 51.0507C88.0388 51.5684 88.3296 52.2705 88.3296 53.0026C88.3296 53.7347 88.0388 54.4368 87.5211 54.9545C87.0034 55.4722 86.3013 55.763 85.5692 55.763H73.8385C73.476 55.763 73.1171 55.6916 72.7822 55.5529C72.4473 55.4142 72.143 55.2108 71.8866 54.9545C71.6303 54.6982 71.427 54.3939 71.2883 54.059C71.1495 53.7241 71.0781 53.3651 71.0781 53.0026V53.0026Z" fill="black"/>
<path id="Vector_11" opacity="0.4" d="M68.6583 43.958C68.293 43.3246 68.1939 42.5723 68.3827 41.866C68.5715 41.1597 69.0327 40.5571 69.6653 40.1905L79.8236 34.3252C80.4541 33.9985 81.1862 33.9273 81.8678 34.1264C82.5494 34.3255 83.1281 34.7796 83.4835 35.3944C83.8389 36.0091 83.9438 36.7372 83.7763 37.4272C83.6088 38.1173 83.1817 38.7163 82.584 39.0996L72.4257 44.965C72.1123 45.1464 71.7661 45.2643 71.4071 45.3119C71.0481 45.3595 70.6832 45.3358 70.3333 45.2423C69.9834 45.1488 69.6554 44.9872 69.3679 44.7668C69.0805 44.5465 68.8394 44.2716 68.6583 43.958V43.958Z" fill="black"/>
<path id="Vector_12" opacity="0.3" d="M62.0419 37.3421C61.7283 37.161 61.4534 36.9198 61.233 36.6324C61.0126 36.345 60.8511 36.017 60.7575 35.6671C60.664 35.3172 60.6404 34.9523 60.688 34.5933C60.7355 34.2343 60.8534 33.8881 61.0349 33.5747L66.9002 23.4164C67.2663 22.7832 67.8688 22.3214 68.5754 22.1326C69.2819 21.9437 70.0345 22.0433 70.6676 22.4093C71.3008 22.7754 71.7625 23.378 71.9514 24.0845C72.1402 24.791 72.0407 25.5436 71.6746 26.1768L65.8093 36.3351C65.4427 36.9676 64.8401 37.4289 64.1338 37.6177C63.4275 37.8065 62.6752 37.7074 62.0419 37.3421V37.3421Z" fill="black"/>
</g>
<defs>
<clipPath id="clip0_4911_26476">
<rect width="106" height="106" fill="white"/>
</clipPath>
</defs>
</svg>
